<svg version="1.1" id="Layer_1" xmlns="http://www.w3.org/2000/svg" xmlns:xlink="http://www.w3.org/1999/xlink" x="0px" y="0px" viewBox="0 0 78.7 59.3" style="enable-background:new 0 0 78.7 59.3;" xml:space="preserve">
 <style type="text/css">
  .st0{fill:#E50021;}
	.st1{fill:#B8C900;}
	.st2{fill:#0061B0;}
 </style>
 <g>
  <path class="st0" d="M78.7,20H59.4c0,0-4.7,0.1-7.2-3.7C49.7,12.6,41.6,0,41.6,0h19.8c0,0,3.9,0.1,6.3,3.4
		C70.2,6.8,78.7,20,78.7,20">
  </path>
  <path class="st1" d="M78.7,25.2H59.4c0,0-4.7-0.1-7.2,3.7S41.6,45.2,41.6,45.2h19.8c0,0,3.9-0.1,6.3-3.4
		C70.2,38.5,78.7,25.2,78.7,25.2">
  </path>
  <path class="st2" d="M44.1,28.6c1.3-2.1,3.4-3.4,3.4-3.4H27.1c0,0-4.7-0.1-7.2,3.7S0,59.3,0,59.3h19.8c0,0,3.9-0.1,6.3-3.4
		C28,53.3,39.3,36,44.1,28.6">
  </path>
 </g>
</svg>